<svg width="129.000000" height="16.000000" viewBox="0 0 129 16" fill="none" xmlns="http://www.w3.org/2000/svg" xmlns:xlink="http://www.w3.org/1999/xlink">
	<desc>
			Created with Pixso.
	</desc>
	<defs/>
	<path id="Vector" d="M10.4189 15.7847L9.4082 13.0251L2.74316 13.0251L1.65918 15.7847L0 15.7847L6.23242 0L12.1025 15.7847L10.4189 15.7847ZM6.15918 3.95837L3.2002 11.7288L8.92676 11.7288L6.15918 3.95837Z" fill="#0F303F" fill-opacity="1.000000" fill-rule="nonzero"/>
	<path id="Vector" d="M20.6914 15.7847L20.6914 0.552734L22.3018 0.552734L22.3018 14.4395L27.042 14.4395L27.042 15.7847L20.6914 15.7847Z" fill="#0F303F" fill-opacity="1.000000" fill-rule="nonzero"/>
	<path id="Vector" d="M35.917 15.7847L35.917 0.552734L37.5273 0.552734L37.5273 14.4395L42.2676 14.4395L42.2676 15.7847L35.917 15.7847Z" fill="#0F303F" fill-opacity="1.000000" fill-rule="nonzero"/>
	<path id="Vector" d="M51.1455 15.7847L51.1455 0.552734L58.6992 0.552734L58.6992 1.96704L52.7559 1.96704L52.7559 5.58801L56.7998 5.58801L56.7998 6.95349L52.7559 6.95349L52.7559 14.4597L58.9639 14.4597L58.9639 15.7805L51.1455 15.7805L51.1455 15.7847Z" fill="#0F303F" fill-opacity="1.000000" fill-rule="nonzero"/>
	<path id="Vector" d="M75.4697 15.9999C71.165 15.9756 67.3125 13.6022 67.3125 8.51404C67.3125 3.73877 71.0664 0.312866 76.0439 0.312866C76.3086 0.312866 76.5742 0.312866 76.8389 0.33728L76.8389 1.75146C76.5498 1.72717 76.2598 1.70276 75.9746 1.70276C72.0781 1.72717 68.8779 4.14929 68.8779 8.51404C68.8779 12.83 72.3184 14.6791 75.4199 14.6791C75.6367 14.6791 75.8525 14.6791 76.0684 14.6548L76.0684 6.28284L72.7705 6.28284L72.7705 5.03528L77.5811 5.03528L77.5811 15.8048C76.8877 15.9268 76.166 15.9999 75.4697 15.9999Z" fill="#0F303F" fill-opacity="1.000000" fill-rule="nonzero"/>
	<path id="Vector" d="M94.6934 12.1149L97.123 15.7847L95.3418 15.7847L93.3447 12.6919C92.6963 12.9561 91.7549 13.1715 90.793 13.1715C90.3115 13.1715 89.7812 13.1227 89.3252 13.0293L89.3252 15.7887L87.7354 15.7887L87.7354 0.552734L90.5723 0.552734C95.5537 0.552734 97.502 3.47876 97.502 7.07544C97.5068 8.87585 96.834 10.7697 94.6934 12.1149ZM90.8906 1.86951L89.3252 1.86951L89.3252 11.6556C89.8555 11.8223 90.2871 11.8954 90.8662 11.8954C91.4697 11.8954 92.1904 11.7979 92.623 11.5824L91.2529 9.54236L92.4805 8.77417L93.9229 10.9565C95.126 10.2373 96.0146 8.9165 96.0146 7.26245C96.0146 3.38123 93.4668 1.86951 90.8906 1.86951Z" fill="#0F303F" fill-opacity="1.000000" fill-rule="nonzero"/>
	<path id="Vector" d="M106.89 15.7847L106.89 0.552734L108.479 0.552734L108.479 15.7847L106.89 15.7847Z" fill="#0F303F" fill-opacity="1.000000" fill-rule="nonzero"/>
	<path id="Vector" d="M127.316 15.7847L126.306 13.0251L119.641 13.0251L118.557 15.7847L116.897 15.7847L123.13 0L129 15.7847L127.316 15.7847ZM123.057 3.95837L120.098 11.7288L125.824 11.7288L123.057 3.95837Z" fill="#0F303F" fill-opacity="1.000000" fill-rule="nonzero"/>
</svg>
